<?xml version="1.0" standalone="no"?>
<!DOCTYPE svg PUBLIC "-//W3C//DTD SVG 20010904//EN"
 "http://www.w3.org/TR/2001/REC-SVG-20010904/DTD/svg10.dtd">
<svg version="1.0" xmlns="http://www.w3.org/2000/svg"
 width="700.000000pt" height="700.000000pt" viewBox="0 0 700.000000 700.000000"
 preserveAspectRatio="xMidYMid meet">
<metadata>
Created by potrace 1.11, written by Peter Selinger 2001-2013
</metadata>
<g transform="translate(0.000000,700.000000) scale(0.100000,-0.100000)"
fill="#000000" stroke="none">
<path d="M2947 6278 c-61 -82 -72 -249 -18 -278 11 -5 73 -21 139 -35 67 -14
135 -31 152 -38 30 -13 29 -13 -76 -47 -122 -38 -187 -82 -235 -158 -32 -51
-69 -158 -69 -201 0 -55 -10 -71 -39 -65 -94 19 -203 -73 -271 -226 -13 -30
-25 -57 -27 -59 -1 -2 -26 6 -55 17 -74 29 -113 35 -137 22 -12 -6 -21 -7 -21
-3 0 28 48 164 103 295 82 193 84 199 60 241 -15 25 -18 39 -11 57 7 18 2 47
-17 107 -26 83 -40 98 -65 68 -10 -12 -18 -1 -51 65 -21 44 -43 80 -48 80 -5
0 -18 -11 -29 -24 l-19 -24 -121 84 c-66 46 -127 84 -135 84 -14 0 -27 -20
-27 -40 0 -5 33 -30 73 -56 39 -26 93 -64 119 -86 l46 -39 -26 -26 c-24 -24
-24 -27 -8 -38 9 -7 46 -21 81 -31 l65 -19 -27 -21 c-34 -27 -25 -41 49 -74
29 -13 55 -25 57 -27 2 -1 -8 -12 -23 -25 -28 -25 -43 -75 -110 -373 -48 -214
-47 -265 6 -265 12 0 18 -8 18 -24 0 -29 11 -39 114 -96 l81 -45 0 -73 0 -74
-53 -26 c-129 -63 -234 -197 -312 -400 -36 -93 -39 -97 -74 -104 -100 -21
-146 -60 -442 -370 -56 -58 -126 -122 -155 -142 -30 -20 -48 -36 -41 -36 7 0
29 -7 49 -15 l37 -15 -80 -41 c-102 -52 -105 -55 -73 -83 l26 -22 -67 -18
c-37 -9 -76 -23 -86 -31 -18 -13 -18 -15 9 -42 15 -16 27 -32 27 -35 0 -9
-202 -144 -257 -172 -29 -14 -53 -30 -53 -35 0 -5 8 -19 19 -32 l19 -23 163
102 c120 76 165 99 171 90 25 -41 27 -43 45 -32 10 6 35 45 57 87 l39 76 25
-19 c13 -11 28 -17 33 -14 11 6 49 129 49 158 0 34 11 38 36 15 12 -12 27 -20
33 -18 5 2 96 88 201 191 184 181 190 186 185 150 -19 -138 -26 -234 -36 -527
-8 -231 -8 -368 -1 -455 10 -120 9 -126 -12 -170 -49 -97 -69 -177 -146 -595
-45 -239 -74 -351 -116 -446 -32 -70 -27 -79 44 -79 23 0 42 -3 42 -7 -1 -5
-34 -30 -75 -56 -41 -26 -75 -55 -75 -63 0 -8 16 -22 35 -31 19 -9 35 -20 35
-23 0 -4 -34 -21 -75 -39 -100 -44 -109 -56 -68 -90 l32 -27 -92 -90 c-51 -50
-111 -105 -134 -123 -48 -36 -52 -50 -24 -75 19 -17 24 -14 163 112 l143 131
25 -24 c15 -14 30 -21 38 -17 14 10 62 146 62 179 0 23 1 23 26 7 14 -10 29
-13 33 -8 13 14 31 109 31 164 l0 49 36 -15 c31 -13 39 -13 50 -2 36 36 70
243 104 638 6 69 13 132 16 140 3 8 23 -30 45 -84 176 -438 479 -739 894 -886
128 -45 240 -70 314 -70 60 0 66 2 97 35 30 32 33 33 39 15 3 -11 18 -29 32
-40 32 -25 128 -27 256 -5 515 91 887 408 1101 941 31 76 45 102 49 88 3 -10
13 -104 22 -209 20 -239 39 -378 66 -476 26 -96 38 -108 84 -86 l35 17 0 -48
c0 -69 21 -163 37 -169 8 -3 23 3 33 12 11 10 21 16 23 14 2 -2 11 -44 20 -93
20 -107 28 -118 62 -86 14 13 27 22 29 19 3 -4 122 -148 210 -254 l39 -47 25
26 26 25 -55 58 c-46 49 -147 177 -172 220 -4 6 8 20 29 32 l37 22 -21 22
c-12 12 -50 40 -86 62 -64 39 -80 55 -53 55 7 0 22 6 32 14 17 12 18 16 5 32
-8 9 -46 38 -85 63 l-70 46 50 5 c76 8 78 11 44 86 -39 85 -82 254 -119 467
-57 321 -93 472 -132 550 -18 37 -18 43 -4 140 56 366 67 757 29 1015 l-6 44
198 -201 c109 -111 203 -201 209 -201 5 0 25 14 43 32 l33 32 0 -40 c0 -21 10
-72 21 -111 23 -77 36 -88 71 -56 10 9 19 14 21 12 1 -2 20 -39 42 -83 22 -43
46 -81 54 -84 8 -3 23 6 35 21 l22 27 157 -95 c86 -52 163 -95 171 -95 14 0
26 21 26 45 0 8 -35 32 -77 55 -43 23 -113 66 -156 97 l-79 55 29 30 c26 28
27 30 10 43 -10 7 -49 21 -87 30 l-69 17 26 22 26 23 -30 21 c-17 12 -63 37
-102 56 l-72 34 51 19 50 19 -59 42 c-32 22 -105 92 -162 154 -253 276 -348
352 -441 353 -21 0 -38 4 -38 9 0 4 -18 49 -40 99 -75 168 -212 347 -303 393
l-37 19 -3 117 -3 116 75 43 c90 50 121 76 121 101 0 10 7 18 15 18 8 0 22 12
32 26 19 30 17 47 -41 309 -49 220 -72 290 -102 314 l-24 19 32 11 c18 7 51
23 72 38 l40 26 -28 22 -29 23 73 23 c39 12 74 29 77 36 3 8 -5 25 -17 38 -13
14 -22 26 -19 28 2 2 31 25 64 52 33 26 84 61 112 77 29 17 55 34 58 39 8 12
-13 49 -28 49 -7 0 -67 -38 -135 -85 l-122 -84 -16 24 c-9 14 -20 25 -25 25
-11 0 -58 -82 -74 -126 -10 -30 -13 -33 -25 -19 -7 8 -18 15 -26 15 -19 0 -57
-108 -59 -170 -1 -30 -8 -68 -15 -83 -18 -38 -7 -78 70 -252 46 -105 100 -256
100 -282 0 -1 -11 2 -24 9 -21 9 -38 6 -96 -16 -39 -14 -75 -26 -80 -26 -4 0
-18 21 -31 48 -35 72 -127 158 -191 177 -29 8 -66 13 -84 9 l-32 -6 -4 94 c-3
75 -8 104 -29 148 -49 102 -104 141 -260 185 -134 37 -126 34 -109 45 8 5 58
19 110 30 206 45 200 42 214 125 10 64 -37 209 -72 222 -41 16 -54 -81 -26
-195 9 -35 14 -65 12 -68 -3 -2 -60 -18 -129 -34 -68 -17 -145 -38 -171 -46
-72 -23 -358 -25 -418 -3 -25 9 -98 29 -163 44 -65 15 -121 33 -123 39 -3 7 2
39 11 71 17 68 19 132 5 169 -13 34 -24 33 -53 -6z m2030 -2190 c-3 -8 -6 -5
-6 6 -1 11 2 17 5 13 3 -3 4 -12 1 -19z"/>
</g>
</svg>
