<?xml version="1.0" encoding="UTF-8"?>
<!DOCTYPE svg PUBLIC "-//W3C//DTD SVG 1.1//EN" "http://www.w3.org/Graphics/SVG/1.1/DTD/svg11.dtd">
<!-- Creator: CorelDRAW X6 -->
<svg xmlns="http://www.w3.org/2000/svg" xml:space="preserve" width="55.4114mm" height="55.4114mm" version="1.1" style="shape-rendering:geometricPrecision; text-rendering:geometricPrecision; image-rendering:optimizeQuality; fill-rule:evenodd; clip-rule:evenodd"
viewBox="0 0 2689 2689"
 xmlns:xlink="http://www.w3.org/1999/xlink">
 <defs>
  <style type="text/css">
   <![CDATA[
    .str0 {stroke:#B83B09;stroke-width:3.69822}
    .fil2 {fill:#2B2A2A}
    .fil4 {fill:#662308}
    .fil5 {fill:#B83400}
    .fil3 {fill:#B83B09}
    .fil1 {fill:#E8632E}
    .fil6 {fill:#ED7C44}
    .fil0 {fill:white}
    .fil7 {fill:#662308;fill-rule:nonzero}
   ]]>
  </style>
 </defs>
 <g id="Vrstva_x0020_1">
  <metadata id="CorelCorpID_0Corel-Layer"/>
  <circle class="fil0" cx="1345" cy="1345" r="1345"/>
  <path class="fil1" d="M1086 595c5,-51 20,-131 102,-160 139,-48 178,-44 318,-1 89,27 91,103 91,159 -21,-5 -145,-32 -275,-27 -68,2 -198,16 -236,29z"/>
  <path class="fil2" d="M1867 1750c15,102 9,210 43,307 3,8 8,14 19,8 6,-4 13,-7 20,-10 -1,3 -2,6 -2,10 -2,25 4,36 8,64 1,11 8,16 16,8 6,-6 12,-11 17,-14 0,2 -1,4 -1,6 -2,25 5,36 9,64 2,11 8,16 16,8 5,-5 9,-9 13,-12 20,28 66,76 85,104 4,6 9,17 20,6 5,-5 15,-12 5,-20 -35,-30 -66,-79 -85,-105 6,-3 11,-5 18,-8 6,-3 15,-9 4,-17 -19,-14 -34,-25 -60,-39 -1,0 -1,-1 -2,-1 5,-2 11,-5 17,-7 6,-3 15,-9 4,-17 -19,-14 -33,-25 -59,-39 12,-2 25,-4 38,-4 9,0 11,-8 7,-15 -57,-94 -61,-349 -114,-425 -8,45 -20,96 -38,147z"/>
  <path class="fil2" d="M1891 1052c106,2 166,158 270,214 -15,2 -29,7 -42,15 3,0 5,1 9,2 27,11 43,21 63,33 11,7 3,14 -3,17 -4,2 -8,5 -12,7 24,4 40,9 60,15 12,4 7,13 2,17 -5,5 -10,10 -15,14 27,18 73,54 115,71 12,5 5,14 2,21 -6,13 -15,5 -21,0 -27,-20 -86,-50 -114,-69 -3,4 -6,9 -8,15 -5,10 -13,7 -18,-2 -13,-25 -23,-33 -30,-58 0,-1 -1,-2 -1,-4 -4,4 -8,8 -12,13 -7,9 -15,4 -17,-7 -7,-27 -14,-38 -15,-63 0,-6 1,-11 3,-14 -12,8 -23,18 -31,27 -90,-93 -126,-119 -155,-158 -6,-35 -15,-71 -28,-106z"/>
  <path class="fil2" d="M915 686l49 19c-10,29 -15,59 -19,84l-60 -34c-16,-7 -25,-15 -21,-32 -10,-1 -18,-1 -22,-11 -6,-17 5,-58 11,-80 20,-77 14,-81 33,-138 2,-11 12,-21 24,-25 -20,-8 -33,-15 -49,-24 -10,-6 -4,-12 2,-15 5,-3 10,-6 14,-9 -22,-5 -37,-10 -55,-17 -11,-4 -5,-12 -1,-16 5,-4 9,-8 13,-11 -23,-18 -52,-45 -88,-62 -10,-5 -4,-13 -1,-19 6,-12 14,-4 19,0 23,19 63,43 87,61 3,-4 6,-9 9,-14 5,-9 12,-6 16,3 11,23 19,31 24,53 0,0 0,1 0,1 3,-3 5,-6 8,-9 6,-8 13,-4 16,5 7,24 14,34 16,56 1,9 -2,16 -7,19 6,4 12,11 16,23 2,22 -44,107 -55,142 -10,31 -7,22 -15,53l-2 6c10,-13 20,-11 37,-8z"/>
  <path class="fil2" d="M783 1752c-15,101 -9,208 -42,304 -3,8 -8,14 -19,8 -6,-4 -13,-7 -20,-10 1,3 2,6 2,10 2,25 -4,36 -8,64 -1,11 -8,16 -16,8 -4,-4 -7,-7 -11,-10 0,3 1,5 0,9 -2,25 -10,35 -18,62 -3,10 -11,15 -17,6 -4,-5 -8,-10 -12,-14 -24,24 -76,66 -99,91 -5,5 -12,15 -21,4 -4,-6 -13,-14 -2,-21 38,-25 77,-69 99,-92 -5,-3 -11,-7 -17,-10 -6,-4 -13,-11 -2,-17 21,-12 37,-20 65,-30 1,0 1,0 2,-1 -7,-4 -15,-7 -25,-11 -6,-3 -15,-9 -4,-17 19,-14 33,-25 59,-39 -12,-2 -25,-4 -38,-4 -9,0 -11,-8 -7,-15 58,-96 61,-359 117,-430 6,50 17,102 34,154z"/>
  <path class="fil2" d="M785 1043c-102,8 -162,158 -264,212 13,2 26,6 38,13 -26,11 -42,20 -62,32 -11,7 -3,14 3,17 4,2 8,5 12,7 -24,4 -40,9 -60,16 -12,4 -6,13 -1,17 6,5 11,10 16,15 -26,18 -72,55 -114,72 -12,5 -5,14 -1,21 7,13 15,5 21,0 27,-20 85,-51 113,-71 3,4 5,9 8,14 5,10 13,7 18,-2 13,-25 23,-34 29,-58 0,-1 1,-2 1,-3 4,4 8,8 12,13 7,9 15,4 17,-7 7,-27 14,-38 15,-63 0,-1 0,-2 0,-4 9,7 16,14 23,21 88,-89 125,-116 153,-153 6,-38 14,-75 24,-109z"/>
  <path class="fil2" d="M1766 666l-45 17c9,24 15,51 18,84l56 -32c16,-7 24,-15 21,-32 11,-1 18,-1 22,-12 6,-17 -5,-58 -11,-80 -20,-77 -14,-81 -33,-138 -2,-11 -12,-21 -24,-25 20,-8 33,-15 49,-24 10,-6 4,-12 -2,-15 -5,-3 -10,-6 -14,-9 22,-5 37,-10 55,-17 11,-4 5,-12 1,-16 -5,-4 -10,-8 -14,-12 23,-18 52,-46 89,-63 10,-5 4,-13 1,-19 -6,-12 -14,-4 -19,0 -23,19 -64,43 -88,61 -3,-4 -5,-8 -8,-13 -5,-9 -12,-6 -16,3 -11,23 -19,31 -24,53 0,0 0,1 0,1 -3,-3 -5,-6 -8,-9 -6,-8 -13,-4 -16,5 -7,24 -14,34 -16,56 -1,9 2,16 7,19 -6,4 -12,11 -16,23 -2,22 44,107 56,142 10,31 7,22 15,53l3 7c-10,-15 -21,-13 -38,-10z"/>
  <path class="fil2" d="M1192 434c36,53 -8,131 -101,129 9,-48 31,-104 97,-127 1,0 3,-1 4,-1z"/>
  <path class="fil2" d="M1278 408c-27,-19 -128,-30 -136,-41 6,-9 8,-22 12,-42 7,-31 -1,-59 -9,-60 -7,-2 -25,22 -31,53 -6,31 -1,54 5,63 1,2 19,8 25,10 12,3 81,13 103,25 11,-3 22,-6 32,-8z"/>
  <path class="fil2" d="M1596 559c-88,-4 -123,-84 -105,-129 5,2 10,3 15,5 72,22 87,76 90,124z"/>
  <path class="fil2" d="M1398 406c27,-19 128,-30 137,-41 -6,-9 -8,-22 -12,-42 -7,-31 1,-59 9,-60 7,-2 25,22 31,53 6,31 1,54 -5,63 -1,2 -19,8 -25,10 -12,3 -78,12 -101,25 -12,-3 -23,-5 -34,-7l0 0z"/>
  <path class="fil3 str0" d="M938 830c-1,5 1,9 6,10 96,-35 237,-28 304,-2 37,-4 120,-9 188,0 66,-22 204,-27 298,13 8,-2 9,-8 9,-13 0,-5 -1,-20 -1,-25 -3,-106 -24,-170 -84,-210 -18,-12 -41,-16 -62,-9 -21,-5 -145,-32 -275,-27 -68,2 -198,16 -236,29 -15,-3 -38,-5 -58,11 -74,52 -84,194 -89,224z"/>
  <path class="fil4" d="M1345 973c-63,-35 -89,-110 -96,-136 37,-4 120,-9 188,0 -13,39 -39,95 -92,136z"/>
  <path class="fil5" d="M1312 2116c33,-428 41,-787 33,-1143 -63,-35 -89,-110 -96,-136 -85,-33 -287,-34 -368,39 -143,128 -138,447 -139,610 -2,238 102,604 500,677 52,7 67,-7 71,-47z"/>
  <path class="fil5" d="M1312 2116c0,40 11,54 62,52 443,-36 530,-488 546,-678 6,-71 59,-388 -119,-594 -76,-88 -281,-88 -365,-59 -13,39 -39,95 -92,136 9,356 1,715 -33,1143z"/>
  <path class="fil6" d="M1064 2103c10,7 107,31 38,-21 -327,-244 -318,-739 -251,-961 25,-83 50,-134 100,-211 29,-46 93,-33 79,-9 -37,62 -81,159 -101,248 -71,305 -50,713 253,966 19,16 43,4 32,-7 -387,-407 -213,-976 -98,-1237 10,-26 93,-33 72,22 -103,264 -239,747 56,1214 7,11 33,6 27,-8 -179,-429 -102,-864 -33,-1134 14,-36 66,14 55,63 -50,276 -72,599 -5,1048 3,20 12,20 21,19 2,0 7,-4 7,-8 32,-419 39,-764 30,-1114 -63,-35 -89,-110 -96,-136 -85,-33 -287,-34 -368,39 -143,128 -138,447 -139,610 -1,198 70,484 323,617z"/>
  <path class="fil6" d="M1530 2098c342,-223 363,-718 311,-943 -20,-84 -41,-137 -87,-217 -26,-47 -91,-39 -78,-14 33,64 71,164 86,254 52,309 6,715 -313,948 -20,15 -44,2 -32,-9 413,-381 276,-960 175,-1228 -8,-26 -91,-38 -73,17 101,271 207,762 -131,1208 -8,10 -34,4 -26,-9 242,-414 195,-854 104,-1130 -12,-37 -67,10 -58,60 71,280 75,605 -60,1046 -6,20 -17,18 -27,16 -2,0 -6,-5 -5,-10 32,-419 39,-764 30,-1114 53,-41 79,-97 92,-136 84,-29 289,-29 365,59 178,206 124,522 119,594 -13,159 -74,501 -354,629 -11,6 -108,26 -35,-21z"/>
  <path class="fil7" d="M1350 963c16,359 -7,744 -30,1106 -2,26 -3,51 -5,76l-4 -13 -6 13c2,-25 3,-51 4,-76 22,-362 46,-746 30,-1105l10 0z"/>
 </g>
</svg>
